<svg
  xmlns="http://www.w3.org/2000/svg"
  viewBox="0 0 8.63854 16.125"
  width="9"
  height="16"
  fill="none"
  preserveAspectRatio="xMidYMid meet"
>
  <path
    d="M8.45951 15.151C8.51477 15.2025 8.5591 15.2646 8.58984 15.3336C8.62058 15.4026 8.63712 15.4771 8.63845 15.5526C8.63978 15.6281 8.62589 15.7031 8.5976 15.7732C8.56931 15.8432 8.5272 15.9068 8.47378 15.9602C8.42037 16.0137 8.35674 16.0558 8.2867 16.0841C8.21666 16.1124 8.14164 16.1262 8.06611 16.1249C7.99059 16.1236 7.9161 16.107 7.8471 16.0763C7.7781 16.0456 7.716 16.0012 7.6645 15.946L0.164505 8.44597C0.0591674 8.3405 0 8.19753 0 8.04847C0 7.89941 0.0591674 7.75644 0.164505 7.65097L7.6645 0.150969C7.77114 0.0516087 7.91217 -0.00248353 8.0579 8.76355e-05C8.20362 0.0026588 8.34266 0.0616926 8.44572 0.164752C8.54878 0.267812 8.60781 0.406851 8.61039 0.552577C8.61296 0.698303 8.55887 0.839338 8.45951 0.945969L1.35794 8.04847L8.45951 15.151Z"
    fill="#999999"
  />
</svg>
