<svg
  xmlns="http://www.w3.org/2000/svg"
  viewBox="0 0 17.625 17.625"
  width="18"
  height="18"
  fill="none"
  preserveAspectRatio="xMidYMid meet"
>
  <path
    d="M16.3125 0H1.3125C0.964403 0 0.630564 0.138281 0.384422 0.384422C0.138281 0.630564 0 0.964403 0 1.3125V16.3125C0 16.6606 0.138281 16.9944 0.384422 17.2406C0.630564 17.4867 0.964403 17.625 1.3125 17.625H16.3125C16.6606 17.625 16.9944 17.4867 17.2406 17.2406C17.4867 16.9944 17.625 16.6606 17.625 16.3125V1.3125C17.625 0.964403 17.4867 0.630564 17.2406 0.384422C16.9944 0.138281 16.6606 0 16.3125 0ZM16.5 16.3125C16.5 16.3622 16.4802 16.4099 16.4451 16.4451C16.4099 16.4802 16.3622 16.5 16.3125 16.5H1.3125C1.26277 16.5 1.21508 16.4802 1.17992 16.4451C1.14475 16.4099 1.125 16.3622 1.125 16.3125V1.3125C1.125 1.26277 1.14475 1.21508 1.17992 1.17992C1.21508 1.14475 1.26277 1.125 1.3125 1.125H16.3125C16.3622 1.125 16.4099 1.14475 16.4451 1.17992C16.4802 1.21508 16.5 1.26277 16.5 1.3125V16.3125ZM12.21 6.21L9.6075 8.8125L12.21 11.415C12.2653 11.4665 12.3096 11.5286 12.3403 11.5976C12.3711 11.6666 12.3876 11.7411 12.3889 11.8166C12.3903 11.8921 12.3764 11.9672 12.3481 12.0372C12.3198 12.1072 12.2777 12.1709 12.2243 12.2243C12.1709 12.2777 12.1072 12.3198 12.0372 12.3481C11.9672 12.3764 11.8921 12.3903 11.8166 12.3889C11.7411 12.3876 11.6666 12.3711 11.5976 12.3403C11.5286 12.3096 11.4665 12.2653 11.415 12.21L8.8125 9.6075L6.21 12.21C6.10337 12.3094 5.96233 12.3635 5.81661 12.3609C5.67088 12.3583 5.53184 12.2993 5.42878 12.1962C5.32572 12.0932 5.26669 11.9541 5.26412 11.8084C5.26155 11.6627 5.31564 11.5216 5.415 11.415L8.0175 8.8125L5.415 6.21C5.31564 6.10337 5.26155 5.96233 5.26412 5.81661C5.26669 5.67088 5.32572 5.53184 5.42878 5.42878C5.53184 5.32572 5.67088 5.26669 5.81661 5.26412C5.96233 5.26155 6.10337 5.31564 6.21 5.415L8.8125 8.0175L11.415 5.415C11.5216 5.31564 11.6627 5.26155 11.8084 5.26412C11.9541 5.26669 12.0932 5.32572 12.1962 5.42878C12.2993 5.53184 12.3583 5.67088 12.3609 5.81661C12.3635 5.96233 12.3094 6.10337 12.21 6.21Z"
    fill="#999999"
  />
</svg>
