<svg width="16" height="16" viewBox="0 0 13.7438 13.7476" fill="none" xmlns="http://www.w3.org/2000/svg" aria-hidden="true">
  <path
    d="M6.49375 7.37382V3.87382C6.49375 3.77437 6.53326 3.67898 6.60359 3.60866C6.67391 3.53833 6.76929 3.49882 6.86875 3.49882C6.96821 3.49882 7.06359 3.53833 7.13392 3.60866C7.20424 3.67898 7.24375 3.77437 7.24375 3.87382V7.37382C7.24375 7.47328 7.20424 7.56866 7.13392 7.63899C7.06359 7.70931 6.96821 7.74882 6.86875 7.74882C6.76929 7.74882 6.67391 7.70931 6.60359 7.63899C6.53326 7.56866 6.49375 7.47328 6.49375 7.37382ZM6.86875 8.99882C6.74514 8.99882 6.6243 9.03548 6.52152 9.10415C6.41874 9.17283 6.33863 9.27044 6.29133 9.38465C6.24402 9.49885 6.23164 9.62452 6.25576 9.74575C6.27988 9.86699 6.3394 9.97836 6.42681 10.0658C6.51422 10.1532 6.62558 10.2127 6.74682 10.2368C6.86806 10.2609 6.99372 10.2486 7.10793 10.2012C7.22213 10.1539 7.31974 10.0738 7.38842 9.97106C7.4571 9.86827 7.49375 9.74744 7.49375 9.62382C7.49375 9.45806 7.4279 9.29909 7.31069 9.18188C7.19348 9.06467 7.03451 8.99882 6.86875 8.99882ZM13.7438 6.87382C13.7441 6.98836 13.7217 7.10183 13.6778 7.20763C13.634 7.31342 13.5695 7.40943 13.4881 7.49007L7.48813 13.4938C7.32424 13.6564 7.10273 13.7476 6.87188 13.7476C6.64102 13.7476 6.41952 13.6564 6.25563 13.4938L0.255626 7.49007C0.174593 7.40921 0.110305 7.31315 0.0664418 7.20741C0.0225781 7.10166 0 6.9883 0 6.87382C0 6.75934 0.0225781 6.64598 0.0664418 6.54024C0.110305 6.4345 0.174593 6.33844 0.255626 6.25757L6.25875 0.253823C6.42264 0.0912334 6.64414 0 6.875 0C7.10586 0 7.32736 0.0912334 7.49125 0.253823L13.4913 6.25757C13.572 6.33847 13.6359 6.4346 13.6793 6.54038C13.7226 6.64617 13.7445 6.75951 13.7438 6.87382ZM12.9938 6.87382C12.9938 6.85781 12.9907 6.84194 12.9846 6.82713C12.9785 6.81233 12.9695 6.79888 12.9581 6.78757L6.955 0.783823C6.93175 0.761662 6.90087 0.749299 6.86875 0.749299C6.83663 0.749299 6.80575 0.761662 6.7825 0.783823L0.779376 6.78757C0.757215 6.81082 0.744852 6.84171 0.744852 6.87382C0.744852 6.90594 0.757215 6.93683 0.779376 6.96007L6.7825 12.9638C6.80575 12.986 6.83663 12.9983 6.86875 12.9983C6.90087 12.9983 6.93175 12.986 6.955 12.9638L12.9581 6.96007C12.9695 6.94876 12.9785 6.93532 12.9846 6.92051C12.9907 6.90571 12.9938 6.88984 12.9938 6.87382Z"
    fill="#D94800"
  />
</svg>
